<svg width="474" height="816" viewBox="0 0 474 816" fill="none" xmlns="http://www.w3.org/2000/svg">
<path d="M67.2034 3C57.679 3 49.8031 10.4197 49.2354 19.9272L3.21627 790.749C2.49575 802.817 12.0889 813 24.1789 813H351.061C362.755 813 372.405 803.852 373.03 792.175L414.336 19.8545C414.825 10.6953 407.531 3 398.358 3H67.2034Z" fill="#FCB527" stroke="black" stroke-width="6"/>
<path d="M400.072 244L376.209 691.265L372.189 775.712C371.276 794.907 355.447 810 336.23 810H307.759H31.9148C20.5976 810 13.9573 797.269 20.4341 787.988L202.572 527L400.072 244Z" fill="#FFD346"/>
<path d="M245.238 7L404.072 155.5L394.027 353L124.072 7H245.238Z" fill="#FED740"/>
<path d="M202.072 5L398.388 5.84319C405.83 5.87515 411.726 12.135 411.313 19.5648L409.565 51L394.52 18.5294H202.072V5Z" fill="#FEFDFB"/>
<path d="M264.33 286L390.072 420.259L389.444 431L263.072 298.531L264.33 286Z" fill="#FFFDDD"/>
<path d="M35.832 291L376.072 691.193L371.283 791.902C370.801 802.034 362.447 810 352.305 810H307.648H24.1707C13.8108 810 5.58927 801.277 6.20219 790.935L35.832 291Z" fill="#FFD346"/>
<path d="M15.1034 641L126.072 810H24.1723C13.8119 810 5.5901 801.276 6.20397 790.933L15.1034 641Z" fill="white"/>
<path d="M27.5723 430L250.072 810H160.551L19.0723 573.5L27.5723 430Z" fill="#FEF196"/>
<path d="M455.775 220.093C463.046 227.766 463.007 239.798 455.686 247.424L396.572 309L403.572 165.002L455.775 220.093Z" fill="#130000"/>
<path d="M449.426 220.824C455.658 227.958 455.295 238.702 448.595 245.398L396.468 297.495L401.965 166.494L449.426 220.824Z" fill="#FED740"/>
<path d="M211.733 5.99805L446.042 247.998L397.573 296.998L391.573 403.498L51.042 56.998L52.3561 21.4077C52.6737 12.8067 59.7384 5.99805 68.3452 5.99805H211.733Z" fill="#FFFDDD"/>
<path d="M439.001 226.118C442.809 230.477 442.587 237.043 438.492 241.135L407.349 272.261L410.647 193.66L439.001 226.118Z" fill="#FB812B"/>
</svg>
